<mxfile host="app.diagrams.net" modified="2024-07-18T12:38:17.061Z" agent="Mozilla/5.0 (Windows NT 10.0; Win64; x64) AppleWebKit/537.36 (KHTML, like Gecko) Chrome/126.0.0.0 Safari/537.36 Edg/126.0.0.0" etag="UwdXL0UWVHLcdUEraEs7" version="24.7.1" type="google">
  <diagram name="Page-1" id="jNOYSyyyvMABOJqdfH9F">
    <mxGraphModel grid="1" page="1" gridSize="10" guides="1" tooltips="1" connect="1" arrows="1" fold="1" pageScale="1" pageWidth="1169" pageHeight="1654" math="0" shadow="0">
      <root>
        <mxCell id="0" />
        <mxCell id="1" parent="0" />
        <mxCell id="k-fx25mXS9ZkSEFtbuff-100" style="edgeStyle=orthogonalEdgeStyle;rounded=0;orthogonalLoop=1;jettySize=auto;html=1;exitX=0;exitY=0;exitDx=0;exitDy=0;entryX=0.5;entryY=1;entryDx=0;entryDy=0;" edge="1" parent="1" source="k-fx25mXS9ZkSEFtbuff-97" target="k-fx25mXS9ZkSEFtbuff-98">
          <mxGeometry relative="1" as="geometry" />
        </mxCell>
        <mxCell id="k-fx25mXS9ZkSEFtbuff-101" style="edgeStyle=orthogonalEdgeStyle;rounded=0;orthogonalLoop=1;jettySize=auto;html=1;exitX=0.25;exitY=0;exitDx=0;exitDy=0;entryX=0.5;entryY=1;entryDx=0;entryDy=0;" edge="1" parent="1" source="k-fx25mXS9ZkSEFtbuff-97" target="k-fx25mXS9ZkSEFtbuff-99">
          <mxGeometry relative="1" as="geometry" />
        </mxCell>
        <mxCell id="k-fx25mXS9ZkSEFtbuff-106" style="edgeStyle=orthogonalEdgeStyle;rounded=0;orthogonalLoop=1;jettySize=auto;html=1;exitX=1;exitY=0;exitDx=0;exitDy=0;entryX=0.5;entryY=1;entryDx=0;entryDy=0;" edge="1" parent="1" source="k-fx25mXS9ZkSEFtbuff-97" target="k-fx25mXS9ZkSEFtbuff-103">
          <mxGeometry relative="1" as="geometry" />
        </mxCell>
        <mxCell id="q8Kv0h8e1H3-x5ll9bpp-5" style="edgeStyle=orthogonalEdgeStyle;rounded=0;orthogonalLoop=1;jettySize=auto;html=1;exitX=0.5;exitY=1;exitDx=0;exitDy=0;entryX=0.5;entryY=0;entryDx=0;entryDy=0;" edge="1" parent="1" source="k-fx25mXS9ZkSEFtbuff-97" target="k-fx25mXS9ZkSEFtbuff-107">
          <mxGeometry relative="1" as="geometry" />
        </mxCell>
        <mxCell id="jJwyuCyKJyDqxuLUub0h-241" style="edgeStyle=orthogonalEdgeStyle;rounded=0;orthogonalLoop=1;jettySize=auto;html=1;exitX=0;exitY=0.5;exitDx=0;exitDy=0;" edge="1" parent="1" source="k-fx25mXS9ZkSEFtbuff-97" target="jJwyuCyKJyDqxuLUub0h-240">
          <mxGeometry relative="1" as="geometry" />
        </mxCell>
        <mxCell id="k-fx25mXS9ZkSEFtbuff-97" value="&lt;font style=&quot;font-size: 14px;&quot;&gt;Branch&lt;/font&gt;" style="rounded=1;arcSize=10;whiteSpace=wrap;html=1;align=center;fillColor=#FFCE9F;" vertex="1" parent="1">
          <mxGeometry x="480" y="770" width="100" height="40" as="geometry" />
        </mxCell>
        <mxCell id="k-fx25mXS9ZkSEFtbuff-98" value="city" style="ellipse;whiteSpace=wrap;html=1;align=center;fillColor=#FFB570;" vertex="1" parent="1">
          <mxGeometry x="445" y="710" width="50" height="30" as="geometry" />
        </mxCell>
        <mxCell id="k-fx25mXS9ZkSEFtbuff-99" value="found_date" style="ellipse;whiteSpace=wrap;html=1;align=center;fillColor=#FFB570;" vertex="1" parent="1">
          <mxGeometry x="495" y="710" width="70" height="42" as="geometry" />
        </mxCell>
        <mxCell id="k-fx25mXS9ZkSEFtbuff-103" value="branch ID" style="ellipse;whiteSpace=wrap;html=1;align=center;fontStyle=4;fillColor=#FFB570;" vertex="1" parent="1">
          <mxGeometry x="570" y="701.5" width="60" height="47" as="geometry" />
        </mxCell>
        <mxCell id="jJwyuCyKJyDqxuLUub0h-60" style="edgeStyle=orthogonalEdgeStyle;rounded=0;orthogonalLoop=1;jettySize=auto;html=1;exitX=0.5;exitY=1;exitDx=0;exitDy=0;entryX=1;entryY=0.25;entryDx=0;entryDy=0;" edge="1" parent="1" source="k-fx25mXS9ZkSEFtbuff-107" target="k-fx25mXS9ZkSEFtbuff-125">
          <mxGeometry relative="1" as="geometry" />
        </mxCell>
        <mxCell id="jJwyuCyKJyDqxuLUub0h-114" style="edgeStyle=orthogonalEdgeStyle;rounded=0;orthogonalLoop=1;jettySize=auto;html=1;exitX=0;exitY=0.5;exitDx=0;exitDy=0;entryX=1;entryY=0.75;entryDx=0;entryDy=0;" edge="1" parent="1" source="k-fx25mXS9ZkSEFtbuff-107" target="k-fx25mXS9ZkSEFtbuff-169">
          <mxGeometry relative="1" as="geometry" />
        </mxCell>
        <mxCell id="jJwyuCyKJyDqxuLUub0h-202" style="edgeStyle=orthogonalEdgeStyle;rounded=0;orthogonalLoop=1;jettySize=auto;html=1;exitX=1;exitY=0.5;exitDx=0;exitDy=0;entryX=0.25;entryY=0;entryDx=0;entryDy=0;" edge="1" parent="1" source="k-fx25mXS9ZkSEFtbuff-107" target="k-fx25mXS9ZkSEFtbuff-109">
          <mxGeometry relative="1" as="geometry" />
        </mxCell>
        <mxCell id="k-fx25mXS9ZkSEFtbuff-107" value="has" style="shape=rhombus;perimeter=rhombusPerimeter;whiteSpace=wrap;html=1;align=center;fillColor=#B5739D;" vertex="1" parent="1">
          <mxGeometry x="445" y="935" width="50" height="60" as="geometry" />
        </mxCell>
        <mxCell id="k-fx25mXS9ZkSEFtbuff-121" style="edgeStyle=orthogonalEdgeStyle;rounded=0;orthogonalLoop=1;jettySize=auto;html=1;exitX=0.75;exitY=0;exitDx=0;exitDy=0;entryX=0.5;entryY=1;entryDx=0;entryDy=0;" edge="1" parent="1" source="k-fx25mXS9ZkSEFtbuff-109" target="k-fx25mXS9ZkSEFtbuff-118">
          <mxGeometry relative="1" as="geometry" />
        </mxCell>
        <mxCell id="jJwyuCyKJyDqxuLUub0h-83" style="edgeStyle=orthogonalEdgeStyle;rounded=0;orthogonalLoop=1;jettySize=auto;html=1;exitX=0.5;exitY=1;exitDx=0;exitDy=0;entryX=0.5;entryY=0;entryDx=0;entryDy=0;" edge="1" parent="1" source="k-fx25mXS9ZkSEFtbuff-109" target="k-fx25mXS9ZkSEFtbuff-122">
          <mxGeometry relative="1" as="geometry" />
        </mxCell>
        <mxCell id="jJwyuCyKJyDqxuLUub0h-134" style="edgeStyle=orthogonalEdgeStyle;rounded=0;orthogonalLoop=1;jettySize=auto;html=1;exitX=0.75;exitY=1;exitDx=0;exitDy=0;entryX=0;entryY=0.5;entryDx=0;entryDy=0;" edge="1" parent="1" source="k-fx25mXS9ZkSEFtbuff-109" target="jJwyuCyKJyDqxuLUub0h-20">
          <mxGeometry relative="1" as="geometry" />
        </mxCell>
        <mxCell id="jJwyuCyKJyDqxuLUub0h-135" style="edgeStyle=orthogonalEdgeStyle;rounded=0;orthogonalLoop=1;jettySize=auto;html=1;exitX=1;exitY=0.75;exitDx=0;exitDy=0;" edge="1" parent="1" source="k-fx25mXS9ZkSEFtbuff-109" target="k-fx25mXS9ZkSEFtbuff-206">
          <mxGeometry relative="1" as="geometry">
            <Array as="points">
              <mxPoint x="795" y="990" />
              <mxPoint x="1112" y="990" />
              <mxPoint x="1112" y="1010" />
            </Array>
          </mxGeometry>
        </mxCell>
        <mxCell id="k-fx25mXS9ZkSEFtbuff-109" value="instructors" style="rounded=1;arcSize=10;whiteSpace=wrap;html=1;align=center;fillColor=#A9C4EB;" vertex="1" parent="1">
          <mxGeometry x="720" y="960" width="100" height="40" as="geometry" />
        </mxCell>
        <mxCell id="k-fx25mXS9ZkSEFtbuff-118" value="Field" style="ellipse;whiteSpace=wrap;html=1;align=center;fillColor=#CCE5FF;" vertex="1" parent="1">
          <mxGeometry x="775" y="880" width="60" height="40" as="geometry" />
        </mxCell>
        <mxCell id="jJwyuCyKJyDqxuLUub0h-67" style="edgeStyle=orthogonalEdgeStyle;rounded=0;orthogonalLoop=1;jettySize=auto;html=1;exitX=0.5;exitY=1;exitDx=0;exitDy=0;entryX=1;entryY=0.5;entryDx=0;entryDy=0;" edge="1" parent="1" source="k-fx25mXS9ZkSEFtbuff-122" target="k-fx25mXS9ZkSEFtbuff-137">
          <mxGeometry relative="1" as="geometry" />
        </mxCell>
        <mxCell id="k-fx25mXS9ZkSEFtbuff-122" value="teach" style="shape=rhombus;perimeter=rhombusPerimeter;whiteSpace=wrap;html=1;align=center;fillColor=#B5739D;" vertex="1" parent="1">
          <mxGeometry x="1130" y="1180" width="80" height="60" as="geometry" />
        </mxCell>
        <mxCell id="jJwyuCyKJyDqxuLUub0h-58" style="edgeStyle=orthogonalEdgeStyle;rounded=0;orthogonalLoop=1;jettySize=auto;html=1;exitX=0.25;exitY=0;exitDx=0;exitDy=0;entryX=0.5;entryY=1;entryDx=0;entryDy=0;" edge="1" parent="1" source="k-fx25mXS9ZkSEFtbuff-125" target="k-fx25mXS9ZkSEFtbuff-156">
          <mxGeometry relative="1" as="geometry" />
        </mxCell>
        <mxCell id="jJwyuCyKJyDqxuLUub0h-59" style="edgeStyle=orthogonalEdgeStyle;rounded=0;orthogonalLoop=1;jettySize=auto;html=1;exitX=0.5;exitY=0;exitDx=0;exitDy=0;" edge="1" parent="1" source="k-fx25mXS9ZkSEFtbuff-125" target="k-fx25mXS9ZkSEFtbuff-154">
          <mxGeometry relative="1" as="geometry" />
        </mxCell>
        <mxCell id="jJwyuCyKJyDqxuLUub0h-61" style="edgeStyle=orthogonalEdgeStyle;rounded=0;orthogonalLoop=1;jettySize=auto;html=1;exitX=1;exitY=0.5;exitDx=0;exitDy=0;entryX=0;entryY=0.5;entryDx=0;entryDy=0;" edge="1" parent="1" source="k-fx25mXS9ZkSEFtbuff-125" target="k-fx25mXS9ZkSEFtbuff-126">
          <mxGeometry relative="1" as="geometry" />
        </mxCell>
        <mxCell id="jJwyuCyKJyDqxuLUub0h-225" style="edgeStyle=orthogonalEdgeStyle;rounded=0;orthogonalLoop=1;jettySize=auto;html=1;exitX=0.75;exitY=0;exitDx=0;exitDy=0;entryX=0.5;entryY=1;entryDx=0;entryDy=0;" edge="1" parent="1" source="k-fx25mXS9ZkSEFtbuff-125" target="jJwyuCyKJyDqxuLUub0h-224">
          <mxGeometry relative="1" as="geometry" />
        </mxCell>
        <mxCell id="k-fx25mXS9ZkSEFtbuff-125" value="intakes" style="rounded=1;arcSize=10;whiteSpace=wrap;html=1;align=center;fillColor=#808080;" vertex="1" parent="1">
          <mxGeometry x="225" y="1150" width="100" height="40" as="geometry" />
        </mxCell>
        <mxCell id="jJwyuCyKJyDqxuLUub0h-50" style="edgeStyle=orthogonalEdgeStyle;rounded=0;orthogonalLoop=1;jettySize=auto;html=1;exitX=1;exitY=0.5;exitDx=0;exitDy=0;entryX=0;entryY=0.75;entryDx=0;entryDy=0;" edge="1" parent="1" source="k-fx25mXS9ZkSEFtbuff-126" target="k-fx25mXS9ZkSEFtbuff-157">
          <mxGeometry relative="1" as="geometry" />
        </mxCell>
        <mxCell id="k-fx25mXS9ZkSEFtbuff-126" value="has" style="shape=rhombus;perimeter=rhombusPerimeter;whiteSpace=wrap;html=1;align=center;fillColor=#B5739D;" vertex="1" parent="1">
          <mxGeometry x="565" y="1150" width="65" height="60" as="geometry" />
        </mxCell>
        <mxCell id="jJwyuCyKJyDqxuLUub0h-64" style="edgeStyle=orthogonalEdgeStyle;rounded=0;orthogonalLoop=1;jettySize=auto;html=1;exitX=0.5;exitY=1;exitDx=0;exitDy=0;entryX=0.5;entryY=0;entryDx=0;entryDy=0;" edge="1" parent="1" source="k-fx25mXS9ZkSEFtbuff-129" target="k-fx25mXS9ZkSEFtbuff-136">
          <mxGeometry relative="1" as="geometry" />
        </mxCell>
        <mxCell id="jJwyuCyKJyDqxuLUub0h-230" style="edgeStyle=orthogonalEdgeStyle;rounded=0;orthogonalLoop=1;jettySize=auto;html=1;exitX=0.75;exitY=0;exitDx=0;exitDy=0;entryX=0.5;entryY=1;entryDx=0;entryDy=0;" edge="1" parent="1" source="k-fx25mXS9ZkSEFtbuff-129" target="jJwyuCyKJyDqxuLUub0h-229">
          <mxGeometry relative="1" as="geometry" />
        </mxCell>
        <mxCell id="jJwyuCyKJyDqxuLUub0h-232" style="edgeStyle=orthogonalEdgeStyle;rounded=0;orthogonalLoop=1;jettySize=auto;html=1;exitX=0.25;exitY=1;exitDx=0;exitDy=0;entryX=0.5;entryY=0;entryDx=0;entryDy=0;" edge="1" parent="1" source="k-fx25mXS9ZkSEFtbuff-129" target="jJwyuCyKJyDqxuLUub0h-231">
          <mxGeometry relative="1" as="geometry" />
        </mxCell>
        <mxCell id="k-fx25mXS9ZkSEFtbuff-129" value="tracks" style="rounded=1;arcSize=10;whiteSpace=wrap;html=1;align=center;fillColor=#33FF99;" vertex="1" parent="1">
          <mxGeometry x="1000" y="1210" width="105" height="40" as="geometry" />
        </mxCell>
        <mxCell id="k-fx25mXS9ZkSEFtbuff-293" style="edgeStyle=orthogonalEdgeStyle;rounded=0;orthogonalLoop=1;jettySize=auto;html=1;exitX=0.5;exitY=0;exitDx=0;exitDy=0;entryX=0;entryY=0.75;entryDx=0;entryDy=0;" edge="1" parent="1" source="k-fx25mXS9ZkSEFtbuff-131" target="k-fx25mXS9ZkSEFtbuff-109">
          <mxGeometry relative="1" as="geometry" />
        </mxCell>
        <mxCell id="jJwyuCyKJyDqxuLUub0h-54" style="edgeStyle=orthogonalEdgeStyle;rounded=0;orthogonalLoop=1;jettySize=auto;html=1;exitX=0.5;exitY=1;exitDx=0;exitDy=0;entryX=0.25;entryY=1;entryDx=0;entryDy=0;" edge="1" parent="1" source="k-fx25mXS9ZkSEFtbuff-131" target="k-fx25mXS9ZkSEFtbuff-109">
          <mxGeometry relative="1" as="geometry" />
        </mxCell>
        <mxCell id="k-fx25mXS9ZkSEFtbuff-131" value="manage" style="shape=rhombus;perimeter=rhombusPerimeter;whiteSpace=wrap;html=1;align=center;fillColor=#B5739D;" vertex="1" parent="1">
          <mxGeometry x="585" y="990" width="70" height="60" as="geometry" />
        </mxCell>
        <mxCell id="jJwyuCyKJyDqxuLUub0h-71" style="edgeStyle=orthogonalEdgeStyle;rounded=0;orthogonalLoop=1;jettySize=auto;html=1;exitX=0.5;exitY=1;exitDx=0;exitDy=0;entryX=0.75;entryY=0;entryDx=0;entryDy=0;" edge="1" parent="1" source="k-fx25mXS9ZkSEFtbuff-136" target="k-fx25mXS9ZkSEFtbuff-137">
          <mxGeometry relative="1" as="geometry" />
        </mxCell>
        <mxCell id="k-fx25mXS9ZkSEFtbuff-136" value="has" style="shape=rhombus;perimeter=rhombusPerimeter;whiteSpace=wrap;html=1;align=center;fillColor=#B5739D;" vertex="1" parent="1">
          <mxGeometry x="1070" y="1480" width="65" height="60" as="geometry" />
        </mxCell>
        <mxCell id="jJwyuCyKJyDqxuLUub0h-72" style="edgeStyle=orthogonalEdgeStyle;rounded=0;orthogonalLoop=1;jettySize=auto;html=1;exitX=0.5;exitY=0;exitDx=0;exitDy=0;entryX=1;entryY=0.5;entryDx=0;entryDy=0;" edge="1" parent="1" source="k-fx25mXS9ZkSEFtbuff-137" target="jJwyuCyKJyDqxuLUub0h-69">
          <mxGeometry relative="1" as="geometry" />
        </mxCell>
        <mxCell id="jJwyuCyKJyDqxuLUub0h-73" style="edgeStyle=orthogonalEdgeStyle;rounded=0;orthogonalLoop=1;jettySize=auto;html=1;exitX=0.25;exitY=0;exitDx=0;exitDy=0;entryX=1;entryY=0.5;entryDx=0;entryDy=0;" edge="1" parent="1" source="k-fx25mXS9ZkSEFtbuff-137" target="k-fx25mXS9ZkSEFtbuff-179">
          <mxGeometry relative="1" as="geometry" />
        </mxCell>
        <mxCell id="jJwyuCyKJyDqxuLUub0h-76" style="edgeStyle=orthogonalEdgeStyle;rounded=0;orthogonalLoop=1;jettySize=auto;html=1;exitX=0;exitY=0.25;exitDx=0;exitDy=0;entryX=1;entryY=0.5;entryDx=0;entryDy=0;" edge="1" parent="1" source="k-fx25mXS9ZkSEFtbuff-137" target="k-fx25mXS9ZkSEFtbuff-256">
          <mxGeometry relative="1" as="geometry" />
        </mxCell>
        <mxCell id="jJwyuCyKJyDqxuLUub0h-78" style="edgeStyle=orthogonalEdgeStyle;rounded=0;orthogonalLoop=1;jettySize=auto;html=1;exitX=0;exitY=0.75;exitDx=0;exitDy=0;entryX=1;entryY=0;entryDx=0;entryDy=0;" edge="1" parent="1" source="k-fx25mXS9ZkSEFtbuff-137" target="k-fx25mXS9ZkSEFtbuff-183">
          <mxGeometry relative="1" as="geometry" />
        </mxCell>
        <mxCell id="jJwyuCyKJyDqxuLUub0h-79" style="edgeStyle=orthogonalEdgeStyle;rounded=0;orthogonalLoop=1;jettySize=auto;html=1;exitX=0.25;exitY=1;exitDx=0;exitDy=0;entryX=0.5;entryY=0;entryDx=0;entryDy=0;" edge="1" parent="1" source="k-fx25mXS9ZkSEFtbuff-137" target="k-fx25mXS9ZkSEFtbuff-184">
          <mxGeometry relative="1" as="geometry" />
        </mxCell>
        <mxCell id="jJwyuCyKJyDqxuLUub0h-82" style="edgeStyle=orthogonalEdgeStyle;rounded=0;orthogonalLoop=1;jettySize=auto;html=1;exitX=0.75;exitY=1;exitDx=0;exitDy=0;entryX=0.5;entryY=0;entryDx=0;entryDy=0;" edge="1" parent="1" source="k-fx25mXS9ZkSEFtbuff-137" target="k-fx25mXS9ZkSEFtbuff-149">
          <mxGeometry relative="1" as="geometry" />
        </mxCell>
        <mxCell id="k-fx25mXS9ZkSEFtbuff-137" value="courses" style="rounded=1;arcSize=10;whiteSpace=wrap;html=1;align=center;fillColor=#67AB9F;" vertex="1" parent="1">
          <mxGeometry x="1030" y="1590" width="100" height="40" as="geometry" />
        </mxCell>
        <mxCell id="k-fx25mXS9ZkSEFtbuff-198" style="edgeStyle=orthogonalEdgeStyle;rounded=0;orthogonalLoop=1;jettySize=auto;html=1;exitX=1;exitY=0;exitDx=0;exitDy=0;" edge="1" parent="1" source="k-fx25mXS9ZkSEFtbuff-147">
          <mxGeometry relative="1" as="geometry">
            <mxPoint x="1780" y="1150" as="targetPoint" />
          </mxGeometry>
        </mxCell>
        <mxCell id="k-fx25mXS9ZkSEFtbuff-228" style="edgeStyle=orthogonalEdgeStyle;rounded=0;orthogonalLoop=1;jettySize=auto;html=1;exitX=1;exitY=0.25;exitDx=0;exitDy=0;entryX=0;entryY=0;entryDx=0;entryDy=0;" edge="1" parent="1" source="k-fx25mXS9ZkSEFtbuff-147" target="k-fx25mXS9ZkSEFtbuff-208">
          <mxGeometry relative="1" as="geometry" />
        </mxCell>
        <mxCell id="k-fx25mXS9ZkSEFtbuff-231" style="edgeStyle=orthogonalEdgeStyle;rounded=0;orthogonalLoop=1;jettySize=auto;html=1;exitX=1;exitY=1;exitDx=0;exitDy=0;entryX=0;entryY=0.5;entryDx=0;entryDy=0;" edge="1" parent="1" source="k-fx25mXS9ZkSEFtbuff-147" target="k-fx25mXS9ZkSEFtbuff-223">
          <mxGeometry relative="1" as="geometry" />
        </mxCell>
        <mxCell id="k-fx25mXS9ZkSEFtbuff-232" style="edgeStyle=orthogonalEdgeStyle;rounded=0;orthogonalLoop=1;jettySize=auto;html=1;exitX=0.75;exitY=1;exitDx=0;exitDy=0;" edge="1" parent="1" source="k-fx25mXS9ZkSEFtbuff-147" target="k-fx25mXS9ZkSEFtbuff-225">
          <mxGeometry relative="1" as="geometry" />
        </mxCell>
        <mxCell id="jJwyuCyKJyDqxuLUub0h-207" style="edgeStyle=orthogonalEdgeStyle;rounded=0;orthogonalLoop=1;jettySize=auto;html=1;exitX=0.25;exitY=1;exitDx=0;exitDy=0;entryX=0.5;entryY=0;entryDx=0;entryDy=0;" edge="1" parent="1" source="k-fx25mXS9ZkSEFtbuff-147" target="jJwyuCyKJyDqxuLUub0h-16">
          <mxGeometry relative="1" as="geometry" />
        </mxCell>
        <mxCell id="jJwyuCyKJyDqxuLUub0h-210" style="edgeStyle=orthogonalEdgeStyle;rounded=0;orthogonalLoop=1;jettySize=auto;html=1;exitX=0;exitY=0.75;exitDx=0;exitDy=0;entryX=0.5;entryY=0;entryDx=0;entryDy=0;" edge="1" parent="1" source="k-fx25mXS9ZkSEFtbuff-147" target="jJwyuCyKJyDqxuLUub0h-209">
          <mxGeometry relative="1" as="geometry" />
        </mxCell>
        <mxCell id="jJwyuCyKJyDqxuLUub0h-227" style="edgeStyle=orthogonalEdgeStyle;rounded=0;orthogonalLoop=1;jettySize=auto;html=1;exitX=0.25;exitY=0;exitDx=0;exitDy=0;entryX=0.5;entryY=1;entryDx=0;entryDy=0;" edge="1" parent="1" source="k-fx25mXS9ZkSEFtbuff-147" target="jJwyuCyKJyDqxuLUub0h-226">
          <mxGeometry relative="1" as="geometry" />
        </mxCell>
        <mxCell id="ytGcK1W-9vzmbJwLlcFZ-1" style="edgeStyle=orthogonalEdgeStyle;rounded=0;orthogonalLoop=1;jettySize=auto;html=1;exitX=0.75;exitY=0;exitDx=0;exitDy=0;" edge="1" parent="1" source="k-fx25mXS9ZkSEFtbuff-147" target="k-fx25mXS9ZkSEFtbuff-203">
          <mxGeometry relative="1" as="geometry" />
        </mxCell>
        <mxCell id="k-fx25mXS9ZkSEFtbuff-147" value="Exams" style="rounded=1;arcSize=10;whiteSpace=wrap;html=1;align=center;fillColor=#FFCCCC;" vertex="1" parent="1">
          <mxGeometry x="1540" y="1210" width="160" height="40" as="geometry" />
        </mxCell>
        <mxCell id="k-fx25mXS9ZkSEFtbuff-165" style="edgeStyle=orthogonalEdgeStyle;rounded=0;orthogonalLoop=1;jettySize=auto;html=1;exitX=0.5;exitY=1;exitDx=0;exitDy=0;entryX=0.5;entryY=0;entryDx=0;entryDy=0;" edge="1" parent="1" source="k-fx25mXS9ZkSEFtbuff-149">
          <mxGeometry relative="1" as="geometry">
            <mxPoint x="1190" y="1900" as="targetPoint" />
          </mxGeometry>
        </mxCell>
        <mxCell id="k-fx25mXS9ZkSEFtbuff-149" value="has" style="shape=rhombus;perimeter=rhombusPerimeter;whiteSpace=wrap;html=1;align=center;fillColor=#B5739D;" vertex="1" parent="1">
          <mxGeometry x="1110" y="1780" width="65" height="60" as="geometry" />
        </mxCell>
        <mxCell id="q8Kv0h8e1H3-x5ll9bpp-28" style="edgeStyle=orthogonalEdgeStyle;rounded=0;orthogonalLoop=1;jettySize=auto;html=1;exitX=0.75;exitY=0;exitDx=0;exitDy=0;entryX=0;entryY=1;entryDx=0;entryDy=0;" edge="1" parent="1" target="q8Kv0h8e1H3-x5ll9bpp-26">
          <mxGeometry relative="1" as="geometry">
            <mxPoint x="1215" y="1900" as="sourcePoint" />
          </mxGeometry>
        </mxCell>
        <mxCell id="k-fx25mXS9ZkSEFtbuff-154" value="Intake ID" style="ellipse;whiteSpace=wrap;html=1;align=center;fontStyle=4;fillColor=#CCCCCC;" vertex="1" parent="1">
          <mxGeometry x="275" y="1050" width="60" height="40" as="geometry" />
        </mxCell>
        <mxCell id="k-fx25mXS9ZkSEFtbuff-156" value="quarter" style="ellipse;whiteSpace=wrap;html=1;align=center;fillColor=#CCCCCC;" vertex="1" parent="1">
          <mxGeometry x="170" y="1050" width="70" height="40" as="geometry" />
        </mxCell>
        <mxCell id="jJwyuCyKJyDqxuLUub0h-51" style="edgeStyle=orthogonalEdgeStyle;rounded=0;orthogonalLoop=1;jettySize=auto;html=1;exitX=0;exitY=0.25;exitDx=0;exitDy=0;entryX=0.5;entryY=1;entryDx=0;entryDy=0;" edge="1" parent="1" source="k-fx25mXS9ZkSEFtbuff-157" target="k-fx25mXS9ZkSEFtbuff-171">
          <mxGeometry relative="1" as="geometry" />
        </mxCell>
        <mxCell id="jJwyuCyKJyDqxuLUub0h-55" style="edgeStyle=orthogonalEdgeStyle;rounded=0;orthogonalLoop=1;jettySize=auto;html=1;exitX=0.5;exitY=0;exitDx=0;exitDy=0;entryX=0.5;entryY=1;entryDx=0;entryDy=0;" edge="1" parent="1" source="k-fx25mXS9ZkSEFtbuff-157" target="k-fx25mXS9ZkSEFtbuff-173">
          <mxGeometry relative="1" as="geometry" />
        </mxCell>
        <mxCell id="jJwyuCyKJyDqxuLUub0h-56" style="edgeStyle=orthogonalEdgeStyle;rounded=0;orthogonalLoop=1;jettySize=auto;html=1;exitX=1;exitY=0.5;exitDx=0;exitDy=0;entryX=0;entryY=0.5;entryDx=0;entryDy=0;" edge="1" parent="1" source="k-fx25mXS9ZkSEFtbuff-157" target="k-fx25mXS9ZkSEFtbuff-166">
          <mxGeometry relative="1" as="geometry" />
        </mxCell>
        <mxCell id="k-fx25mXS9ZkSEFtbuff-157" value="Department" style="rounded=1;arcSize=10;whiteSpace=wrap;html=1;align=center;fillColor=#009999;" vertex="1" parent="1">
          <mxGeometry x="675" y="1160" width="100" height="40" as="geometry" />
        </mxCell>
        <mxCell id="jJwyuCyKJyDqxuLUub0h-57" style="edgeStyle=orthogonalEdgeStyle;rounded=0;orthogonalLoop=1;jettySize=auto;html=1;exitX=1;exitY=0.5;exitDx=0;exitDy=0;entryX=0.25;entryY=0;entryDx=0;entryDy=0;" edge="1" parent="1" source="k-fx25mXS9ZkSEFtbuff-166" target="k-fx25mXS9ZkSEFtbuff-129">
          <mxGeometry relative="1" as="geometry" />
        </mxCell>
        <mxCell id="k-fx25mXS9ZkSEFtbuff-166" value="has" style="shape=rhombus;perimeter=rhombusPerimeter;whiteSpace=wrap;html=1;align=center;fillColor=#B5739D;" vertex="1" parent="1">
          <mxGeometry x="840" y="1160" width="65" height="60" as="geometry" />
        </mxCell>
        <mxCell id="k-fx25mXS9ZkSEFtbuff-260" style="edgeStyle=orthogonalEdgeStyle;rounded=0;orthogonalLoop=1;jettySize=auto;html=1;exitX=0;exitY=0.75;exitDx=0;exitDy=0;entryX=1;entryY=1;entryDx=0;entryDy=0;" edge="1" parent="1" source="k-fx25mXS9ZkSEFtbuff-169" target="k-fx25mXS9ZkSEFtbuff-234">
          <mxGeometry relative="1" as="geometry" />
        </mxCell>
        <mxCell id="jJwyuCyKJyDqxuLUub0h-31" style="edgeStyle=orthogonalEdgeStyle;rounded=0;orthogonalLoop=1;jettySize=auto;html=1;exitX=0.25;exitY=1;exitDx=0;exitDy=0;entryX=1;entryY=0.5;entryDx=0;entryDy=0;" edge="1" parent="1" source="k-fx25mXS9ZkSEFtbuff-169" target="k-fx25mXS9ZkSEFtbuff-240">
          <mxGeometry relative="1" as="geometry" />
        </mxCell>
        <mxCell id="jJwyuCyKJyDqxuLUub0h-32" style="edgeStyle=orthogonalEdgeStyle;rounded=0;orthogonalLoop=1;jettySize=auto;html=1;exitX=0.75;exitY=1;exitDx=0;exitDy=0;entryX=0.5;entryY=0;entryDx=0;entryDy=0;" edge="1" parent="1" source="k-fx25mXS9ZkSEFtbuff-169" target="k-fx25mXS9ZkSEFtbuff-242">
          <mxGeometry relative="1" as="geometry" />
        </mxCell>
        <mxCell id="jJwyuCyKJyDqxuLUub0h-143" style="edgeStyle=orthogonalEdgeStyle;rounded=0;orthogonalLoop=1;jettySize=auto;html=1;exitX=1;exitY=0.25;exitDx=0;exitDy=0;entryX=0;entryY=0.5;entryDx=0;entryDy=0;" edge="1" parent="1" source="k-fx25mXS9ZkSEFtbuff-169" target="k-fx25mXS9ZkSEFtbuff-258">
          <mxGeometry relative="1" as="geometry" />
        </mxCell>
        <mxCell id="k-fx25mXS9ZkSEFtbuff-169" value="students" style="rounded=1;arcSize=10;whiteSpace=wrap;html=1;align=center;fillColor=#A9C4EB;" vertex="1" parent="1">
          <mxGeometry x="-170" y="990" width="100" height="40" as="geometry" />
        </mxCell>
        <mxCell id="k-fx25mXS9ZkSEFtbuff-171" value="name" style="ellipse;whiteSpace=wrap;html=1;align=center;fillColor=#006666;" vertex="1" parent="1">
          <mxGeometry x="610" y="1110" width="50" height="40" as="geometry" />
        </mxCell>
        <mxCell id="k-fx25mXS9ZkSEFtbuff-173" value="dept ID" style="ellipse;whiteSpace=wrap;html=1;align=center;fontStyle=4;fillColor=#006666;" vertex="1" parent="1">
          <mxGeometry x="675" y="1080" width="70" height="40" as="geometry" />
        </mxCell>
        <mxCell id="k-fx25mXS9ZkSEFtbuff-179" value="name&amp;nbsp;" style="ellipse;whiteSpace=wrap;html=1;align=center;fontStyle=4;fillColor=#106652;" vertex="1" parent="1">
          <mxGeometry x="930" y="1550" width="60" height="40" as="geometry" />
        </mxCell>
        <mxCell id="k-fx25mXS9ZkSEFtbuff-183" value="max_deg" style="ellipse;whiteSpace=wrap;html=1;align=center;fillColor=#106652;" vertex="1" parent="1">
          <mxGeometry x="960" y="1654" width="60" height="40" as="geometry" />
        </mxCell>
        <mxCell id="k-fx25mXS9ZkSEFtbuff-184" value="min_deg" style="ellipse;whiteSpace=wrap;html=1;align=center;fillColor=#106652;" vertex="1" parent="1">
          <mxGeometry x="1030" y="1660" width="60" height="40" as="geometry" />
        </mxCell>
        <mxCell id="k-fx25mXS9ZkSEFtbuff-203" value="year" style="ellipse;whiteSpace=wrap;html=1;align=center;fillColor=#FFCCE6;" vertex="1" parent="1">
          <mxGeometry x="1690" y="1080" width="50" height="40" as="geometry" />
        </mxCell>
        <mxCell id="k-fx25mXS9ZkSEFtbuff-257" style="edgeStyle=orthogonalEdgeStyle;rounded=0;orthogonalLoop=1;jettySize=auto;html=1;exitX=0.5;exitY=1;exitDx=0;exitDy=0;entryX=0;entryY=0.25;entryDx=0;entryDy=0;" edge="1" parent="1" source="k-fx25mXS9ZkSEFtbuff-206" target="k-fx25mXS9ZkSEFtbuff-147">
          <mxGeometry relative="1" as="geometry" />
        </mxCell>
        <mxCell id="k-fx25mXS9ZkSEFtbuff-206" value="make" style="shape=rhombus;perimeter=rhombusPerimeter;whiteSpace=wrap;html=1;align=center;fillColor=#B5739D;" vertex="1" parent="1">
          <mxGeometry x="1430" y="980" width="120" height="60" as="geometry" />
        </mxCell>
        <mxCell id="k-fx25mXS9ZkSEFtbuff-208" value="total_degree" style="ellipse;whiteSpace=wrap;html=1;align=center;fillColor=#FFCCE6;" vertex="1" parent="1">
          <mxGeometry x="1780" y="1200" width="70" height="40" as="geometry" />
        </mxCell>
        <mxCell id="k-fx25mXS9ZkSEFtbuff-223" value="date" style="ellipse;whiteSpace=wrap;html=1;align=center;fillColor=#FFCCE6;" vertex="1" parent="1">
          <mxGeometry x="1708.5" y="1310" width="45" height="40" as="geometry" />
        </mxCell>
        <mxCell id="k-fx25mXS9ZkSEFtbuff-224" value="start_time" style="ellipse;whiteSpace=wrap;html=1;align=center;fillColor=#FFCCE6;" vertex="1" parent="1">
          <mxGeometry x="1770" y="1260" width="60" height="40" as="geometry" />
        </mxCell>
        <mxCell id="k-fx25mXS9ZkSEFtbuff-225" value="end_time" style="ellipse;whiteSpace=wrap;html=1;align=center;fillColor=#FFCCE6;" vertex="1" parent="1">
          <mxGeometry x="1600" y="1310" width="55" height="40" as="geometry" />
        </mxCell>
        <mxCell id="k-fx25mXS9ZkSEFtbuff-230" style="edgeStyle=orthogonalEdgeStyle;rounded=0;orthogonalLoop=1;jettySize=auto;html=1;exitX=1;exitY=0.5;exitDx=0;exitDy=0;entryX=0.017;entryY=0.3;entryDx=0;entryDy=0;entryPerimeter=0;" edge="1" parent="1" source="k-fx25mXS9ZkSEFtbuff-147" target="k-fx25mXS9ZkSEFtbuff-224">
          <mxGeometry relative="1" as="geometry" />
        </mxCell>
        <mxCell id="k-fx25mXS9ZkSEFtbuff-234" value="faculty" style="ellipse;whiteSpace=wrap;html=1;align=center;fillColor=#CCE5FF;" vertex="1" parent="1">
          <mxGeometry x="-350" y="990" width="60" height="40" as="geometry" />
        </mxCell>
        <mxCell id="k-fx25mXS9ZkSEFtbuff-240" value="militery_status" style="ellipse;whiteSpace=wrap;html=1;align=center;fillColor=#CCE5FF;" vertex="1" parent="1">
          <mxGeometry x="-330" y="1050" width="90" height="40" as="geometry" />
        </mxCell>
        <mxCell id="jJwyuCyKJyDqxuLUub0h-35" style="edgeStyle=orthogonalEdgeStyle;rounded=0;orthogonalLoop=1;jettySize=auto;html=1;exitX=0.5;exitY=1;exitDx=0;exitDy=0;entryX=0;entryY=0.75;entryDx=0;entryDy=0;" edge="1" parent="1" source="k-fx25mXS9ZkSEFtbuff-242" target="k-fx25mXS9ZkSEFtbuff-129">
          <mxGeometry relative="1" as="geometry" />
        </mxCell>
        <mxCell id="jJwyuCyKJyDqxuLUub0h-62" style="edgeStyle=orthogonalEdgeStyle;rounded=0;orthogonalLoop=1;jettySize=auto;html=1;exitX=1;exitY=0.5;exitDx=0;exitDy=0;" edge="1" parent="1" source="k-fx25mXS9ZkSEFtbuff-242" target="k-fx25mXS9ZkSEFtbuff-125">
          <mxGeometry relative="1" as="geometry" />
        </mxCell>
        <mxCell id="k-fx25mXS9ZkSEFtbuff-242" value="assign" style="shape=rhombus;perimeter=rhombusPerimeter;whiteSpace=wrap;html=1;align=center;fillColor=#B5739D;" vertex="1" parent="1">
          <mxGeometry x="-100" y="1100" width="85" height="60" as="geometry" />
        </mxCell>
        <mxCell id="k-fx25mXS9ZkSEFtbuff-256" value="description" style="ellipse;whiteSpace=wrap;html=1;align=center;fillColor=#106652;" vertex="1" parent="1">
          <mxGeometry x="905" y="1600" width="70" height="40" as="geometry" />
        </mxCell>
        <mxCell id="k-fx25mXS9ZkSEFtbuff-262" style="edgeStyle=orthogonalEdgeStyle;rounded=0;orthogonalLoop=1;jettySize=auto;html=1;exitX=1;exitY=0.5;exitDx=0;exitDy=0;entryX=0.5;entryY=0;entryDx=0;entryDy=0;" edge="1" parent="1" source="k-fx25mXS9ZkSEFtbuff-258" target="k-fx25mXS9ZkSEFtbuff-147">
          <mxGeometry relative="1" as="geometry" />
        </mxCell>
        <mxCell id="k-fx25mXS9ZkSEFtbuff-258" value="solve" style="shape=rhombus;perimeter=rhombusPerimeter;whiteSpace=wrap;html=1;align=center;fillColor=#B5739D;" vertex="1" parent="1">
          <mxGeometry x="350" y="667" width="120" height="60" as="geometry" />
        </mxCell>
        <mxCell id="q8Kv0h8e1H3-x5ll9bpp-4" style="edgeStyle=orthogonalEdgeStyle;rounded=0;orthogonalLoop=1;jettySize=auto;html=1;exitX=0;exitY=0.5;exitDx=0;exitDy=0;" edge="1" parent="1" source="q8Kv0h8e1H3-x5ll9bpp-2" target="k-fx25mXS9ZkSEFtbuff-97">
          <mxGeometry relative="1" as="geometry" />
        </mxCell>
        <mxCell id="q8Kv0h8e1H3-x5ll9bpp-2" value="manage" style="shape=rhombus;perimeter=rhombusPerimeter;whiteSpace=wrap;html=1;align=center;fillColor=#B5739D;" vertex="1" parent="1">
          <mxGeometry x="705" y="770" width="70" height="60" as="geometry" />
        </mxCell>
        <mxCell id="q8Kv0h8e1H3-x5ll9bpp-3" style="edgeStyle=orthogonalEdgeStyle;rounded=0;orthogonalLoop=1;jettySize=auto;html=1;exitX=0.5;exitY=0;exitDx=0;exitDy=0;" edge="1" parent="1" source="k-fx25mXS9ZkSEFtbuff-109">
          <mxGeometry relative="1" as="geometry">
            <mxPoint x="740" y="831" as="targetPoint" />
          </mxGeometry>
        </mxCell>
        <mxCell id="jJwyuCyKJyDqxuLUub0h-23" style="edgeStyle=orthogonalEdgeStyle;rounded=0;orthogonalLoop=1;jettySize=auto;html=1;exitX=1;exitY=0.25;exitDx=0;exitDy=0;entryX=0;entryY=1;entryDx=0;entryDy=0;" edge="1" parent="1" source="q8Kv0h8e1H3-x5ll9bpp-15" target="q8Kv0h8e1H3-x5ll9bpp-25">
          <mxGeometry relative="1" as="geometry" />
        </mxCell>
        <mxCell id="jJwyuCyKJyDqxuLUub0h-238" style="edgeStyle=orthogonalEdgeStyle;rounded=0;orthogonalLoop=1;jettySize=auto;html=1;exitX=0;exitY=0.5;exitDx=0;exitDy=0;entryX=0.5;entryY=1;entryDx=0;entryDy=0;" edge="1" parent="1" source="q8Kv0h8e1H3-x5ll9bpp-15" target="jJwyuCyKJyDqxuLUub0h-237">
          <mxGeometry relative="1" as="geometry" />
        </mxCell>
        <mxCell id="q8Kv0h8e1H3-x5ll9bpp-15" value="Questions" style="rounded=1;arcSize=10;whiteSpace=wrap;html=1;align=center;fillColor=#CCCC00;" vertex="1" parent="1">
          <mxGeometry x="1120" y="1900" width="100" height="40" as="geometry" />
        </mxCell>
        <mxCell id="q8Kv0h8e1H3-x5ll9bpp-17" value="" style="endArrow=none;html=1;rounded=0;exitX=0.5;exitY=0;exitDx=0;exitDy=0;" edge="1" parent="1" source="q8Kv0h8e1H3-x5ll9bpp-20">
          <mxGeometry width="50" height="50" relative="1" as="geometry">
            <mxPoint x="940" y="2270" as="sourcePoint" />
            <mxPoint x="1170" y="1990" as="targetPoint" />
          </mxGeometry>
        </mxCell>
        <mxCell id="q8Kv0h8e1H3-x5ll9bpp-32" style="edgeStyle=orthogonalEdgeStyle;rounded=0;orthogonalLoop=1;jettySize=auto;html=1;exitX=0;exitY=0.25;exitDx=0;exitDy=0;entryX=1;entryY=0.5;entryDx=0;entryDy=0;" edge="1" parent="1" source="q8Kv0h8e1H3-x5ll9bpp-20">
          <mxGeometry relative="1" as="geometry">
            <mxPoint x="880" y="2190" as="targetPoint" />
          </mxGeometry>
        </mxCell>
        <mxCell id="q8Kv0h8e1H3-x5ll9bpp-20" value="Article" style="rounded=1;whiteSpace=wrap;html=1;fillColor=#FFFF99;" vertex="1" parent="1">
          <mxGeometry x="920" y="2170" width="120" height="60" as="geometry" />
        </mxCell>
        <mxCell id="jJwyuCyKJyDqxuLUub0h-239" style="edgeStyle=orthogonalEdgeStyle;rounded=0;orthogonalLoop=1;jettySize=auto;html=1;exitX=0.5;exitY=1;exitDx=0;exitDy=0;entryX=0.5;entryY=0;entryDx=0;entryDy=0;" edge="1" parent="1" source="q8Kv0h8e1H3-x5ll9bpp-21" target="q8Kv0h8e1H3-x5ll9bpp-33">
          <mxGeometry relative="1" as="geometry" />
        </mxCell>
        <mxCell id="q8Kv0h8e1H3-x5ll9bpp-21" value="true or false&amp;nbsp;" style="rounded=1;whiteSpace=wrap;html=1;fillColor=#FFFF99;" vertex="1" parent="1">
          <mxGeometry x="1110" y="2170" width="120" height="60" as="geometry" />
        </mxCell>
        <mxCell id="q8Kv0h8e1H3-x5ll9bpp-42" style="edgeStyle=orthogonalEdgeStyle;rounded=0;orthogonalLoop=1;jettySize=auto;html=1;exitX=0.25;exitY=1;exitDx=0;exitDy=0;" edge="1" parent="1" source="q8Kv0h8e1H3-x5ll9bpp-22" target="q8Kv0h8e1H3-x5ll9bpp-38">
          <mxGeometry relative="1" as="geometry" />
        </mxCell>
        <mxCell id="q8Kv0h8e1H3-x5ll9bpp-43" style="edgeStyle=orthogonalEdgeStyle;rounded=0;orthogonalLoop=1;jettySize=auto;html=1;exitX=0.75;exitY=1;exitDx=0;exitDy=0;" edge="1" parent="1" source="q8Kv0h8e1H3-x5ll9bpp-22" target="q8Kv0h8e1H3-x5ll9bpp-39">
          <mxGeometry relative="1" as="geometry" />
        </mxCell>
        <mxCell id="q8Kv0h8e1H3-x5ll9bpp-45" style="edgeStyle=orthogonalEdgeStyle;rounded=0;orthogonalLoop=1;jettySize=auto;html=1;exitX=1;exitY=0.25;exitDx=0;exitDy=0;entryX=0;entryY=1;entryDx=0;entryDy=0;" edge="1" parent="1" source="q8Kv0h8e1H3-x5ll9bpp-22" target="q8Kv0h8e1H3-x5ll9bpp-41">
          <mxGeometry relative="1" as="geometry" />
        </mxCell>
        <mxCell id="q8Kv0h8e1H3-x5ll9bpp-22" value="multi choice" style="rounded=1;whiteSpace=wrap;html=1;fillColor=#FFFF99;" vertex="1" parent="1">
          <mxGeometry x="1280" y="2170" width="120" height="60" as="geometry" />
        </mxCell>
        <mxCell id="q8Kv0h8e1H3-x5ll9bpp-24" value="" style="endArrow=none;html=1;rounded=0;exitX=0.5;exitY=0;exitDx=0;exitDy=0;entryX=0.5;entryY=0;entryDx=0;entryDy=0;" edge="1" parent="1" source="jJwyuCyKJyDqxuLUub0h-6" target="q8Kv0h8e1H3-x5ll9bpp-22">
          <mxGeometry width="50" height="50" relative="1" as="geometry">
            <mxPoint x="1170" y="1990" as="sourcePoint" />
            <mxPoint x="1360" y="1810" as="targetPoint" />
          </mxGeometry>
        </mxCell>
        <mxCell id="q8Kv0h8e1H3-x5ll9bpp-25" value="degree" style="ellipse;whiteSpace=wrap;html=1;align=center;fillColor=#FFFF99;" vertex="1" parent="1">
          <mxGeometry x="1280" y="1870" width="66" height="40" as="geometry" />
        </mxCell>
        <mxCell id="q8Kv0h8e1H3-x5ll9bpp-26" value="question ID" style="ellipse;whiteSpace=wrap;html=1;align=center;fontStyle=4;fillColor=#FFFF99;" vertex="1" parent="1">
          <mxGeometry x="1202.5" y="1840" width="67.5" height="40" as="geometry" />
        </mxCell>
        <mxCell id="q8Kv0h8e1H3-x5ll9bpp-27" value="qustion topic" style="ellipse;whiteSpace=wrap;html=1;align=center;fillColor=#FFFF99;" vertex="1" parent="1">
          <mxGeometry x="1260" y="1940" width="80" height="40" as="geometry" />
        </mxCell>
        <mxCell id="q8Kv0h8e1H3-x5ll9bpp-30" style="edgeStyle=orthogonalEdgeStyle;rounded=0;orthogonalLoop=1;jettySize=auto;html=1;exitX=0.75;exitY=1;exitDx=0;exitDy=0;entryX=-0.017;entryY=0.75;entryDx=0;entryDy=0;entryPerimeter=0;" edge="1" parent="1" target="q8Kv0h8e1H3-x5ll9bpp-27">
          <mxGeometry relative="1" as="geometry">
            <mxPoint x="1215" y="1940" as="sourcePoint" />
          </mxGeometry>
        </mxCell>
        <mxCell id="q8Kv0h8e1H3-x5ll9bpp-33" value="correct ans" style="ellipse;whiteSpace=wrap;html=1;align=center;fillColor=#FFD966;" vertex="1" parent="1">
          <mxGeometry x="1120" y="2270" width="60" height="40" as="geometry" />
        </mxCell>
        <mxCell id="q8Kv0h8e1H3-x5ll9bpp-38" value="choice1" style="ellipse;whiteSpace=wrap;html=1;align=center;fillColor=#FFD966;" vertex="1" parent="1">
          <mxGeometry x="1220" y="2260" width="100" height="40" as="geometry" />
        </mxCell>
        <mxCell id="q8Kv0h8e1H3-x5ll9bpp-39" value="choice2" style="ellipse;whiteSpace=wrap;html=1;align=center;fillColor=#FFD966;" vertex="1" parent="1">
          <mxGeometry x="1360" y="2270" width="100" height="40" as="geometry" />
        </mxCell>
        <mxCell id="q8Kv0h8e1H3-x5ll9bpp-40" value="choice3" style="ellipse;whiteSpace=wrap;html=1;align=center;fillColor=#FFD966;" vertex="1" parent="1">
          <mxGeometry x="1440" y="2230" width="100" height="40" as="geometry" />
        </mxCell>
        <mxCell id="q8Kv0h8e1H3-x5ll9bpp-41" value="choice4" style="ellipse;whiteSpace=wrap;html=1;align=center;fillColor=#FFD966;" vertex="1" parent="1">
          <mxGeometry x="1440" y="2140" width="100" height="40" as="geometry" />
        </mxCell>
        <mxCell id="q8Kv0h8e1H3-x5ll9bpp-44" style="edgeStyle=orthogonalEdgeStyle;rounded=0;orthogonalLoop=1;jettySize=auto;html=1;exitX=1;exitY=0.75;exitDx=0;exitDy=0;entryX=0.073;entryY=0.3;entryDx=0;entryDy=0;entryPerimeter=0;" edge="1" parent="1" source="q8Kv0h8e1H3-x5ll9bpp-22">
          <mxGeometry relative="1" as="geometry">
            <mxPoint x="1487.3000000000002" y="2232" as="targetPoint" />
          </mxGeometry>
        </mxCell>
        <mxCell id="jJwyuCyKJyDqxuLUub0h-7" value="" style="endArrow=none;html=1;rounded=0;exitX=0.5;exitY=0;exitDx=0;exitDy=0;entryX=0.5;entryY=0;entryDx=0;entryDy=0;" edge="1" parent="1" target="jJwyuCyKJyDqxuLUub0h-6">
          <mxGeometry width="50" height="50" relative="1" as="geometry">
            <mxPoint x="1170" y="1990" as="sourcePoint" />
            <mxPoint x="1340" y="2170" as="targetPoint" />
          </mxGeometry>
        </mxCell>
        <mxCell id="jJwyuCyKJyDqxuLUub0h-6" value="D" style="ellipse;whiteSpace=wrap;html=1;aspect=fixed;" vertex="1" parent="1">
          <mxGeometry x="1155" y="1980" width="40" height="40" as="geometry" />
        </mxCell>
        <mxCell id="jJwyuCyKJyDqxuLUub0h-9" value="" style="shape=link;html=1;rounded=0;entryX=0.5;entryY=1;entryDx=0;entryDy=0;exitX=0.5;exitY=0;exitDx=0;exitDy=0;" edge="1" parent="1" source="jJwyuCyKJyDqxuLUub0h-6">
          <mxGeometry relative="1" as="geometry">
            <mxPoint x="1160" y="2090" as="sourcePoint" />
            <mxPoint x="1171.96" y="1940" as="targetPoint" />
          </mxGeometry>
        </mxCell>
        <mxCell id="jJwyuCyKJyDqxuLUub0h-10" value="1" style="resizable=0;html=1;whiteSpace=wrap;align=right;verticalAlign=bottom;" connectable="0" vertex="1" parent="jJwyuCyKJyDqxuLUub0h-9">
          <mxGeometry x="1" relative="1" as="geometry" />
        </mxCell>
        <mxCell id="jJwyuCyKJyDqxuLUub0h-11" style="edgeStyle=orthogonalEdgeStyle;rounded=0;orthogonalLoop=1;jettySize=auto;html=1;exitX=0.5;exitY=1;exitDx=0;exitDy=0;entryX=0.408;entryY=0;entryDx=0;entryDy=0;entryPerimeter=0;" edge="1" parent="1" source="jJwyuCyKJyDqxuLUub0h-6" target="q8Kv0h8e1H3-x5ll9bpp-21">
          <mxGeometry relative="1" as="geometry" />
        </mxCell>
        <mxCell id="jJwyuCyKJyDqxuLUub0h-13" value="correct ans" style="ellipse;whiteSpace=wrap;html=1;align=center;fillColor=#FFD966;" vertex="1" parent="1">
          <mxGeometry x="1360" y="2080" width="60" height="40" as="geometry" />
        </mxCell>
        <mxCell id="jJwyuCyKJyDqxuLUub0h-14" style="edgeStyle=orthogonalEdgeStyle;rounded=0;orthogonalLoop=1;jettySize=auto;html=1;exitX=0.75;exitY=0;exitDx=0;exitDy=0;entryX=0.667;entryY=1.15;entryDx=0;entryDy=0;entryPerimeter=0;" edge="1" parent="1" source="q8Kv0h8e1H3-x5ll9bpp-22" target="jJwyuCyKJyDqxuLUub0h-13">
          <mxGeometry relative="1" as="geometry">
            <Array as="points">
              <mxPoint x="1370" y="2145" />
              <mxPoint x="1400" y="2145" />
            </Array>
          </mxGeometry>
        </mxCell>
        <mxCell id="jJwyuCyKJyDqxuLUub0h-18" style="edgeStyle=orthogonalEdgeStyle;rounded=0;orthogonalLoop=1;jettySize=auto;html=1;exitX=1;exitY=0.5;exitDx=0;exitDy=0;" edge="1" parent="1" source="jJwyuCyKJyDqxuLUub0h-16">
          <mxGeometry relative="1" as="geometry">
            <mxPoint x="1830" y="1400" as="targetPoint" />
          </mxGeometry>
        </mxCell>
        <mxCell id="jJwyuCyKJyDqxuLUub0h-16" value="has" style="shape=rhombus;perimeter=rhombusPerimeter;whiteSpace=wrap;html=1;align=center;fillColor=#B5739D;" vertex="1" parent="1">
          <mxGeometry x="1505" y="1340" width="65" height="60" as="geometry" />
        </mxCell>
        <mxCell id="jJwyuCyKJyDqxuLUub0h-21" style="edgeStyle=orthogonalEdgeStyle;rounded=0;orthogonalLoop=1;jettySize=auto;html=1;exitX=1;exitY=0.5;exitDx=0;exitDy=0;entryX=1;entryY=0.75;entryDx=0;entryDy=0;" edge="1" parent="1" source="jJwyuCyKJyDqxuLUub0h-20" target="q8Kv0h8e1H3-x5ll9bpp-15">
          <mxGeometry relative="1" as="geometry" />
        </mxCell>
        <mxCell id="jJwyuCyKJyDqxuLUub0h-20" value="create" style="shape=rhombus;perimeter=rhombusPerimeter;whiteSpace=wrap;html=1;align=center;fillColor=#B5739D;" vertex="1" parent="1">
          <mxGeometry x="1250" y="1030" width="120" height="60" as="geometry" />
        </mxCell>
        <mxCell id="jJwyuCyKJyDqxuLUub0h-22" value="type" style="ellipse;whiteSpace=wrap;html=1;align=center;fillColor=#FFCCE6;" vertex="1" parent="1">
          <mxGeometry x="1730" y="1110" width="100" height="40" as="geometry" />
        </mxCell>
        <mxCell id="jJwyuCyKJyDqxuLUub0h-24" value="best answer&amp;nbsp;" style="ellipse;whiteSpace=wrap;html=1;align=center;fillColor=#FFD966;" vertex="1" parent="1">
          <mxGeometry x="780" y="2170" width="100" height="40" as="geometry" />
        </mxCell>
        <mxCell id="jJwyuCyKJyDqxuLUub0h-69" value="course_ID" style="ellipse;whiteSpace=wrap;html=1;align=center;fontStyle=4;fillColor=#106652;" vertex="1" parent="1">
          <mxGeometry x="980" y="1510" width="60" height="40" as="geometry" />
        </mxCell>
        <mxCell id="jJwyuCyKJyDqxuLUub0h-93" style="edgeStyle=orthogonalEdgeStyle;rounded=0;orthogonalLoop=1;jettySize=auto;html=1;exitX=0.5;exitY=0;exitDx=0;exitDy=0;" edge="1" parent="1" source="jJwyuCyKJyDqxuLUub0h-85" target="jJwyuCyKJyDqxuLUub0h-90">
          <mxGeometry relative="1" as="geometry" />
        </mxCell>
        <mxCell id="jJwyuCyKJyDqxuLUub0h-85" value="Exam questiion" style="shape=ext;margin=3;double=1;whiteSpace=wrap;html=1;align=center;fillColor=#3333FF;" vertex="1" parent="1">
          <mxGeometry x="1830" y="1380" width="100" height="40" as="geometry" />
        </mxCell>
        <mxCell id="jJwyuCyKJyDqxuLUub0h-139" style="edgeStyle=orthogonalEdgeStyle;rounded=0;orthogonalLoop=1;jettySize=auto;html=1;exitX=0.5;exitY=0;exitDx=0;exitDy=0;entryX=0.5;entryY=1;entryDx=0;entryDy=0;" edge="1" parent="1" source="jJwyuCyKJyDqxuLUub0h-90" target="jJwyuCyKJyDqxuLUub0h-138">
          <mxGeometry relative="1" as="geometry" />
        </mxCell>
        <mxCell id="jJwyuCyKJyDqxuLUub0h-90" value="has" style="shape=rhombus;perimeter=rhombusPerimeter;whiteSpace=wrap;html=1;align=center;fillColor=#B5739D;" vertex="1" parent="1">
          <mxGeometry x="1869" y="1260" width="61" height="60" as="geometry" />
        </mxCell>
        <mxCell id="jJwyuCyKJyDqxuLUub0h-91" value="mark" style="ellipse;whiteSpace=wrap;html=1;align=center;fillColor=#E6FFCC;" vertex="1" parent="1">
          <mxGeometry x="2045" y="1010" width="70" height="40" as="geometry" />
        </mxCell>
        <mxCell id="jJwyuCyKJyDqxuLUub0h-92" value="stu_asn" style="ellipse;whiteSpace=wrap;html=1;align=center;fillColor=#E6FFCC;" vertex="1" parent="1">
          <mxGeometry x="2190" y="1050" width="100" height="40" as="geometry" />
        </mxCell>
        <mxCell id="jJwyuCyKJyDqxuLUub0h-182" style="edgeStyle=orthogonalEdgeStyle;rounded=0;orthogonalLoop=1;jettySize=auto;html=1;exitX=0;exitY=0.5;exitDx=0;exitDy=0;entryX=0.5;entryY=1;entryDx=0;entryDy=0;" edge="1" parent="1" source="jJwyuCyKJyDqxuLUub0h-109" target="jJwyuCyKJyDqxuLUub0h-178">
          <mxGeometry relative="1" as="geometry" />
        </mxCell>
        <mxCell id="jJwyuCyKJyDqxuLUub0h-184" style="edgeStyle=orthogonalEdgeStyle;rounded=0;orthogonalLoop=1;jettySize=auto;html=1;exitX=0.5;exitY=0;exitDx=0;exitDy=0;" edge="1" parent="1" source="jJwyuCyKJyDqxuLUub0h-109" target="jJwyuCyKJyDqxuLUub0h-180">
          <mxGeometry relative="1" as="geometry" />
        </mxCell>
        <mxCell id="jJwyuCyKJyDqxuLUub0h-200" style="edgeStyle=orthogonalEdgeStyle;rounded=0;orthogonalLoop=1;jettySize=auto;html=1;exitX=1;exitY=0;exitDx=0;exitDy=0;entryX=0;entryY=1;entryDx=0;entryDy=0;" edge="1" parent="1" source="jJwyuCyKJyDqxuLUub0h-109" target="jJwyuCyKJyDqxuLUub0h-199">
          <mxGeometry relative="1" as="geometry" />
        </mxCell>
        <mxCell id="jJwyuCyKJyDqxuLUub0h-236" style="edgeStyle=orthogonalEdgeStyle;rounded=0;orthogonalLoop=1;jettySize=auto;html=1;exitX=0.25;exitY=1;exitDx=0;exitDy=0;entryX=1;entryY=0.5;entryDx=0;entryDy=0;" edge="1" parent="1" source="jJwyuCyKJyDqxuLUub0h-109" target="jJwyuCyKJyDqxuLUub0h-234">
          <mxGeometry relative="1" as="geometry" />
        </mxCell>
        <mxCell id="jJwyuCyKJyDqxuLUub0h-109" value="users" style="rounded=1;arcSize=10;whiteSpace=wrap;html=1;align=center;fillColor=#A9C4EB;" vertex="1" parent="1">
          <mxGeometry x="510" y="390" width="100" height="40" as="geometry" />
        </mxCell>
        <mxCell id="jJwyuCyKJyDqxuLUub0h-129" value="" style="shape=link;html=1;rounded=0;entryX=0.5;entryY=1;entryDx=0;entryDy=0;" edge="1" parent="1" target="jJwyuCyKJyDqxuLUub0h-109">
          <mxGeometry relative="1" as="geometry">
            <mxPoint x="560" y="490" as="sourcePoint" />
            <mxPoint x="570" y="440" as="targetPoint" />
          </mxGeometry>
        </mxCell>
        <mxCell id="jJwyuCyKJyDqxuLUub0h-130" value="1" style="resizable=0;html=1;whiteSpace=wrap;align=right;verticalAlign=bottom;" connectable="0" vertex="1" parent="jJwyuCyKJyDqxuLUub0h-129">
          <mxGeometry x="1" relative="1" as="geometry" />
        </mxCell>
        <mxCell id="jJwyuCyKJyDqxuLUub0h-132" style="edgeStyle=orthogonalEdgeStyle;rounded=0;orthogonalLoop=1;jettySize=auto;html=1;exitX=0;exitY=0.5;exitDx=0;exitDy=0;entryX=0.5;entryY=0;entryDx=0;entryDy=0;" edge="1" parent="1" source="jJwyuCyKJyDqxuLUub0h-131" target="k-fx25mXS9ZkSEFtbuff-169">
          <mxGeometry relative="1" as="geometry" />
        </mxCell>
        <mxCell id="jJwyuCyKJyDqxuLUub0h-136" style="edgeStyle=orthogonalEdgeStyle;rounded=0;orthogonalLoop=1;jettySize=auto;html=1;exitX=1;exitY=0.5;exitDx=0;exitDy=0;entryX=1;entryY=0.5;entryDx=0;entryDy=0;" edge="1" parent="1" source="jJwyuCyKJyDqxuLUub0h-131" target="k-fx25mXS9ZkSEFtbuff-109">
          <mxGeometry relative="1" as="geometry" />
        </mxCell>
        <mxCell id="jJwyuCyKJyDqxuLUub0h-131" value="D" style="ellipse;whiteSpace=wrap;html=1;aspect=fixed;" vertex="1" parent="1">
          <mxGeometry x="540" y="490" width="40" height="40" as="geometry" />
        </mxCell>
        <mxCell id="jJwyuCyKJyDqxuLUub0h-141" style="edgeStyle=orthogonalEdgeStyle;rounded=0;orthogonalLoop=1;jettySize=auto;html=1;exitX=0.5;exitY=0;exitDx=0;exitDy=0;entryX=0.5;entryY=1;entryDx=0;entryDy=0;" edge="1" parent="1" source="jJwyuCyKJyDqxuLUub0h-138" target="jJwyuCyKJyDqxuLUub0h-91">
          <mxGeometry relative="1" as="geometry" />
        </mxCell>
        <mxCell id="jJwyuCyKJyDqxuLUub0h-142" style="edgeStyle=orthogonalEdgeStyle;rounded=0;orthogonalLoop=1;jettySize=auto;html=1;exitX=1;exitY=0.5;exitDx=0;exitDy=0;" edge="1" parent="1" source="jJwyuCyKJyDqxuLUub0h-138" target="jJwyuCyKJyDqxuLUub0h-92">
          <mxGeometry relative="1" as="geometry" />
        </mxCell>
        <mxCell id="jJwyuCyKJyDqxuLUub0h-138" value="student answer" style="shape=ext;margin=3;double=1;whiteSpace=wrap;html=1;align=center;fillColor=#99FF33;" vertex="1" parent="1">
          <mxGeometry x="2030" y="1110" width="100" height="40" as="geometry" />
        </mxCell>
        <mxCell id="jJwyuCyKJyDqxuLUub0h-151" value="M" style="text;strokeColor=none;align=center;fillColor=none;html=1;verticalAlign=middle;whiteSpace=wrap;rounded=0;" vertex="1" parent="1">
          <mxGeometry x="-60" y="1080" width="60" height="30" as="geometry" />
        </mxCell>
        <mxCell id="jJwyuCyKJyDqxuLUub0h-152" value="1" style="text;strokeColor=none;align=center;fillColor=none;html=1;verticalAlign=middle;whiteSpace=wrap;rounded=0;" vertex="1" parent="1">
          <mxGeometry x="-15" y="1125" width="60" height="30" as="geometry" />
        </mxCell>
        <mxCell id="jJwyuCyKJyDqxuLUub0h-153" value="1" style="text;strokeColor=none;align=center;fillColor=none;html=1;verticalAlign=middle;whiteSpace=wrap;rounded=0;" vertex="1" parent="1">
          <mxGeometry x="-70" y="1165" width="60" height="30" as="geometry" />
        </mxCell>
        <mxCell id="jJwyuCyKJyDqxuLUub0h-154" value="1" style="text;strokeColor=none;align=center;fillColor=none;html=1;verticalAlign=middle;whiteSpace=wrap;rounded=0;" vertex="1" parent="1">
          <mxGeometry x="430" y="900" width="60" height="30" as="geometry" />
        </mxCell>
        <mxCell id="jJwyuCyKJyDqxuLUub0h-155" value="M" style="text;strokeColor=none;align=center;fillColor=none;html=1;verticalAlign=middle;whiteSpace=wrap;rounded=0;" vertex="1" parent="1">
          <mxGeometry x="410" y="995" width="60" height="30" as="geometry" />
        </mxCell>
        <mxCell id="jJwyuCyKJyDqxuLUub0h-156" value="1" style="text;strokeColor=none;align=center;fillColor=none;html=1;verticalAlign=middle;whiteSpace=wrap;rounded=0;" vertex="1" parent="1">
          <mxGeometry x="510" y="1150" width="60" height="30" as="geometry" />
        </mxCell>
        <mxCell id="jJwyuCyKJyDqxuLUub0h-157" value="M" style="text;strokeColor=none;align=center;fillColor=none;html=1;verticalAlign=middle;whiteSpace=wrap;rounded=0;" vertex="1" parent="1">
          <mxGeometry x="600" y="1180" width="60" height="30" as="geometry" />
        </mxCell>
        <mxCell id="jJwyuCyKJyDqxuLUub0h-158" value="M" style="text;strokeColor=none;align=center;fillColor=none;html=1;verticalAlign=middle;whiteSpace=wrap;rounded=0;" vertex="1" parent="1">
          <mxGeometry x="880" y="1160" width="60" height="30" as="geometry" />
        </mxCell>
        <mxCell id="jJwyuCyKJyDqxuLUub0h-159" value="1" style="text;strokeColor=none;align=center;fillColor=none;html=1;verticalAlign=middle;whiteSpace=wrap;rounded=0;" vertex="1" parent="1">
          <mxGeometry x="795" y="1165" width="60" height="30" as="geometry" />
        </mxCell>
        <mxCell id="jJwyuCyKJyDqxuLUub0h-161" value="M" style="text;strokeColor=none;align=center;fillColor=none;html=1;verticalAlign=middle;whiteSpace=wrap;rounded=0;" vertex="1" parent="1">
          <mxGeometry x="1090" y="1450" width="60" height="30" as="geometry" />
        </mxCell>
        <mxCell id="jJwyuCyKJyDqxuLUub0h-166" value="M" style="text;strokeColor=none;align=center;fillColor=none;html=1;verticalAlign=middle;whiteSpace=wrap;rounded=0;" vertex="1" parent="1">
          <mxGeometry x="1090" y="1530" width="60" height="30" as="geometry" />
        </mxCell>
        <mxCell id="jJwyuCyKJyDqxuLUub0h-167" value="1" style="text;strokeColor=none;align=center;fillColor=none;html=1;verticalAlign=middle;whiteSpace=wrap;rounded=0;" vertex="1" parent="1">
          <mxGeometry x="1130" y="1760" width="60" height="30" as="geometry" />
        </mxCell>
        <mxCell id="jJwyuCyKJyDqxuLUub0h-168" value="M" style="text;strokeColor=none;align=center;fillColor=none;html=1;verticalAlign=middle;whiteSpace=wrap;rounded=0;" vertex="1" parent="1">
          <mxGeometry x="1125" y="1840" width="60" height="30" as="geometry" />
        </mxCell>
        <mxCell id="jJwyuCyKJyDqxuLUub0h-169" value="1" style="text;strokeColor=none;align=center;fillColor=none;html=1;verticalAlign=middle;whiteSpace=wrap;rounded=0;" vertex="1" parent="1">
          <mxGeometry x="1170" y="1150" width="60" height="30" as="geometry" />
        </mxCell>
        <mxCell id="jJwyuCyKJyDqxuLUub0h-170" value="M" style="text;strokeColor=none;align=center;fillColor=none;html=1;verticalAlign=middle;whiteSpace=wrap;rounded=0;" vertex="1" parent="1">
          <mxGeometry x="1155" y="1240" width="60" height="30" as="geometry" />
        </mxCell>
        <mxCell id="jJwyuCyKJyDqxuLUub0h-173" value="1" style="text;strokeColor=none;align=center;fillColor=none;html=1;verticalAlign=middle;whiteSpace=wrap;rounded=0;" vertex="1" parent="1">
          <mxGeometry x="1190" y="1030" width="60" height="30" as="geometry" />
        </mxCell>
        <mxCell id="jJwyuCyKJyDqxuLUub0h-174" value="M" style="text;strokeColor=none;align=center;fillColor=none;html=1;verticalAlign=middle;whiteSpace=wrap;rounded=0;" vertex="1" parent="1">
          <mxGeometry x="1340" y="1030" width="60" height="30" as="geometry" />
        </mxCell>
        <mxCell id="jJwyuCyKJyDqxuLUub0h-175" value="1" style="text;strokeColor=none;align=center;fillColor=none;html=1;verticalAlign=middle;whiteSpace=wrap;rounded=0;" vertex="1" parent="1">
          <mxGeometry x="1390" y="980" width="60" height="30" as="geometry" />
        </mxCell>
        <mxCell id="jJwyuCyKJyDqxuLUub0h-176" value="M" style="text;strokeColor=none;align=center;fillColor=none;html=1;verticalAlign=middle;whiteSpace=wrap;rounded=0;" vertex="1" parent="1">
          <mxGeometry x="1475" y="1040" width="60" height="30" as="geometry" />
        </mxCell>
        <mxCell id="jJwyuCyKJyDqxuLUub0h-178" value="ID" style="ellipse;whiteSpace=wrap;html=1;align=center;fontStyle=4;fillColor=#CCE5FF;" vertex="1" parent="1">
          <mxGeometry x="405" y="340" width="100" height="40" as="geometry" />
        </mxCell>
        <mxCell id="jJwyuCyKJyDqxuLUub0h-179" value="password" style="ellipse;whiteSpace=wrap;html=1;align=center;fillColor=#CCE5FF;" vertex="1" parent="1">
          <mxGeometry x="455" y="300" width="100" height="40" as="geometry" />
        </mxCell>
        <mxCell id="jJwyuCyKJyDqxuLUub0h-180" value="user name" style="ellipse;whiteSpace=wrap;html=1;align=center;fillColor=#CCE5FF;" vertex="1" parent="1">
          <mxGeometry x="545" y="270" width="100" height="40" as="geometry" />
        </mxCell>
        <mxCell id="jJwyuCyKJyDqxuLUub0h-181" value="Role" style="ellipse;whiteSpace=wrap;html=1;align=center;fillColor=#CCE5FF;" vertex="1" parent="1">
          <mxGeometry x="645" y="290" width="50" height="40" as="geometry" />
        </mxCell>
        <mxCell id="jJwyuCyKJyDqxuLUub0h-183" style="edgeStyle=orthogonalEdgeStyle;rounded=0;orthogonalLoop=1;jettySize=auto;html=1;exitX=0.25;exitY=0;exitDx=0;exitDy=0;entryX=0.59;entryY=1.075;entryDx=0;entryDy=0;entryPerimeter=0;" edge="1" parent="1" source="jJwyuCyKJyDqxuLUub0h-109" target="jJwyuCyKJyDqxuLUub0h-179">
          <mxGeometry relative="1" as="geometry" />
        </mxCell>
        <mxCell id="jJwyuCyKJyDqxuLUub0h-185" style="edgeStyle=orthogonalEdgeStyle;rounded=0;orthogonalLoop=1;jettySize=auto;html=1;exitX=0.75;exitY=0;exitDx=0;exitDy=0;entryX=0.38;entryY=0.95;entryDx=0;entryDy=0;entryPerimeter=0;" edge="1" parent="1" source="jJwyuCyKJyDqxuLUub0h-109" target="jJwyuCyKJyDqxuLUub0h-181">
          <mxGeometry relative="1" as="geometry" />
        </mxCell>
        <mxCell id="jJwyuCyKJyDqxuLUub0h-198" value="1" style="text;strokeColor=none;align=center;fillColor=none;html=1;verticalAlign=middle;whiteSpace=wrap;rounded=0;" vertex="1" parent="1">
          <mxGeometry x="720" y="820" width="60" height="30" as="geometry" />
        </mxCell>
        <mxCell id="jJwyuCyKJyDqxuLUub0h-199" value="Name" style="ellipse;whiteSpace=wrap;html=1;align=center;fillColor=#CCE5FF;" vertex="1" parent="1">
          <mxGeometry x="690" y="330" width="50" height="40" as="geometry" />
        </mxCell>
        <mxCell id="jJwyuCyKJyDqxuLUub0h-212" style="edgeStyle=orthogonalEdgeStyle;rounded=0;orthogonalLoop=1;jettySize=auto;html=1;exitX=0.5;exitY=1;exitDx=0;exitDy=0;entryX=1;entryY=0.75;entryDx=0;entryDy=0;" edge="1" parent="1" source="jJwyuCyKJyDqxuLUub0h-209" target="k-fx25mXS9ZkSEFtbuff-137">
          <mxGeometry relative="1" as="geometry" />
        </mxCell>
        <mxCell id="jJwyuCyKJyDqxuLUub0h-209" value="belongs" style="shape=rhombus;perimeter=rhombusPerimeter;whiteSpace=wrap;html=1;align=center;fillColor=#B5739D;" vertex="1" parent="1">
          <mxGeometry x="1407.5" y="1530" width="100" height="60" as="geometry" />
        </mxCell>
        <mxCell id="jJwyuCyKJyDqxuLUub0h-213" value="M" style="text;strokeColor=none;align=center;fillColor=none;html=1;verticalAlign=middle;whiteSpace=wrap;rounded=0;" vertex="1" parent="1">
          <mxGeometry x="1440" y="1490" width="60" height="30" as="geometry" />
        </mxCell>
        <mxCell id="jJwyuCyKJyDqxuLUub0h-214" value="1" style="text;strokeColor=none;align=center;fillColor=none;html=1;verticalAlign=middle;whiteSpace=wrap;rounded=0;" vertex="1" parent="1">
          <mxGeometry x="1447.5" y="1590" width="60" height="30" as="geometry" />
        </mxCell>
        <mxCell id="jJwyuCyKJyDqxuLUub0h-215" value="M" style="text;strokeColor=none;align=center;fillColor=none;html=1;verticalAlign=middle;whiteSpace=wrap;rounded=0;" vertex="1" parent="1">
          <mxGeometry x="1490" y="1320" width="60" height="30" as="geometry" />
        </mxCell>
        <mxCell id="jJwyuCyKJyDqxuLUub0h-216" value="M" style="text;strokeColor=none;align=center;fillColor=none;html=1;verticalAlign=middle;whiteSpace=wrap;rounded=0;" vertex="1" parent="1">
          <mxGeometry x="1550" y="1340" width="60" height="30" as="geometry" />
        </mxCell>
        <mxCell id="jJwyuCyKJyDqxuLUub0h-217" value="1" style="text;strokeColor=none;align=center;fillColor=none;html=1;verticalAlign=middle;whiteSpace=wrap;rounded=0;" vertex="1" parent="1">
          <mxGeometry x="1840" y="1320" width="60" height="30" as="geometry" />
        </mxCell>
        <mxCell id="jJwyuCyKJyDqxuLUub0h-218" value="M" style="text;strokeColor=none;align=center;fillColor=none;html=1;verticalAlign=middle;whiteSpace=wrap;rounded=0;" vertex="1" parent="1">
          <mxGeometry x="1850" y="1230" width="60" height="30" as="geometry" />
        </mxCell>
        <mxCell id="jJwyuCyKJyDqxuLUub0h-219" value="1" style="text;strokeColor=none;align=center;fillColor=none;html=1;verticalAlign=middle;whiteSpace=wrap;rounded=0;" vertex="1" parent="1">
          <mxGeometry x="300" y="660" width="60" height="30" as="geometry" />
        </mxCell>
        <mxCell id="jJwyuCyKJyDqxuLUub0h-220" value="M" style="text;strokeColor=none;align=center;fillColor=none;html=1;verticalAlign=middle;whiteSpace=wrap;rounded=0;" vertex="1" parent="1">
          <mxGeometry x="460" y="667" width="60" height="30" as="geometry" />
        </mxCell>
        <mxCell id="jJwyuCyKJyDqxuLUub0h-223" value="1" style="text;strokeColor=none;align=center;fillColor=none;html=1;verticalAlign=middle;whiteSpace=wrap;rounded=0;" vertex="1" parent="1">
          <mxGeometry x="660" y="775" width="60" height="30" as="geometry" />
        </mxCell>
        <mxCell id="jJwyuCyKJyDqxuLUub0h-224" value="year" style="ellipse;whiteSpace=wrap;html=1;align=center;fillColor=#CCCCCC;" vertex="1" parent="1">
          <mxGeometry x="340" y="1070" width="70" height="40" as="geometry" />
        </mxCell>
        <mxCell id="jJwyuCyKJyDqxuLUub0h-226" value="exam_ID" style="ellipse;whiteSpace=wrap;html=1;align=center;fillColor=#FFCCE6;" vertex="1" parent="1">
          <mxGeometry x="1508" y="1140" width="52" height="40" as="geometry" />
        </mxCell>
        <mxCell id="jJwyuCyKJyDqxuLUub0h-229" value="track_id" style="ellipse;whiteSpace=wrap;html=1;align=center;fontStyle=4;fillColor=#00FF80;" vertex="1" parent="1">
          <mxGeometry x="1030" y="1145" width="100" height="40" as="geometry" />
        </mxCell>
        <mxCell id="jJwyuCyKJyDqxuLUub0h-231" value="track_name" style="ellipse;whiteSpace=wrap;html=1;align=center;fillColor=#00FF80;" vertex="1" parent="1">
          <mxGeometry x="895" y="1310" width="80" height="40" as="geometry" />
        </mxCell>
        <mxCell id="jJwyuCyKJyDqxuLUub0h-233" value="phone" style="ellipse;whiteSpace=wrap;html=1;align=center;fillColor=#CCE5FF;" vertex="1" parent="1">
          <mxGeometry x="350" y="400" width="60" height="40" as="geometry" />
        </mxCell>
        <mxCell id="jJwyuCyKJyDqxuLUub0h-234" value="email" style="ellipse;whiteSpace=wrap;html=1;align=center;fillColor=#CCE5FF;" vertex="1" parent="1">
          <mxGeometry x="420" y="440" width="40" height="40" as="geometry" />
        </mxCell>
        <mxCell id="jJwyuCyKJyDqxuLUub0h-235" style="edgeStyle=orthogonalEdgeStyle;rounded=0;orthogonalLoop=1;jettySize=auto;html=1;exitX=0;exitY=0.75;exitDx=0;exitDy=0;entryX=1;entryY=0.675;entryDx=0;entryDy=0;entryPerimeter=0;" edge="1" parent="1" source="jJwyuCyKJyDqxuLUub0h-109" target="jJwyuCyKJyDqxuLUub0h-233">
          <mxGeometry relative="1" as="geometry" />
        </mxCell>
        <mxCell id="jJwyuCyKJyDqxuLUub0h-237" value="question_text" style="ellipse;whiteSpace=wrap;html=1;align=center;fillColor=#FFFF99;" vertex="1" parent="1">
          <mxGeometry x="1000" y="1850" width="100" height="40" as="geometry" />
        </mxCell>
        <mxCell id="jJwyuCyKJyDqxuLUub0h-240" value="branch_name" style="ellipse;whiteSpace=wrap;html=1;align=center;fillColor=#FFB570;" vertex="1" parent="1">
          <mxGeometry x="350" y="757" width="100" height="40" as="geometry" />
        </mxCell>
      </root>
    </mxGraphModel>
  </diagram>
</mxfile>
